%TF.GenerationSoftware,KiCad,Pcbnew,(5.1.6)-1*%
%TF.CreationDate,2021-05-10T20:56:14-04:00*%
%TF.ProjectId,magswitch,6d616773-7769-4746-9368-2e6b69636164,rev?*%
%TF.SameCoordinates,Original*%
%TF.FileFunction,Copper,L2,Bot*%
%TF.FilePolarity,Positive*%
%FSLAX46Y46*%
G04 Gerber Fmt 4.6, Leading zero omitted, Abs format (unit mm)*
G04 Created by KiCad (PCBNEW (5.1.6)-1) date 2021-05-10 20:56:14*
%MOMM*%
%LPD*%
G01*
G04 APERTURE LIST*
%TA.AperFunction,ComponentPad*%
%ADD10C,0.800000*%
%TD*%
%TA.AperFunction,ComponentPad*%
%ADD11C,6.400000*%
%TD*%
%TA.AperFunction,ViaPad*%
%ADD12C,0.762000*%
%TD*%
%TA.AperFunction,Conductor*%
%ADD13C,0.254000*%
%TD*%
G04 APERTURE END LIST*
D10*
%TO.P,H3,1*%
%TO.N,/IN*%
X-1653204Y16698296D03*
X-3350260Y17401240D03*
X-5047316Y16698296D03*
X-5750260Y15001240D03*
X-5047316Y13304184D03*
X-3350260Y12601240D03*
X-1653204Y13304184D03*
X-950260Y15001240D03*
D11*
X-3350260Y15001240D03*
%TD*%
D10*
%TO.P,H2,1*%
%TO.N,GND*%
X5496896Y4897456D03*
X3799840Y5600400D03*
X2102784Y4897456D03*
X1399840Y3200400D03*
X2102784Y1503344D03*
X3799840Y800400D03*
X5496896Y1503344D03*
X6199840Y3200400D03*
D11*
X3799840Y3200400D03*
%TD*%
D10*
%TO.P,H1,1*%
%TO.N,/OUT*%
X-2102784Y4897456D03*
X-3799840Y5600400D03*
X-5496896Y4897456D03*
X-6199840Y3200400D03*
X-5496896Y1503344D03*
X-3799840Y800400D03*
X-2102784Y1503344D03*
X-1399840Y3200400D03*
D11*
X-3799840Y3200400D03*
%TD*%
D12*
%TO.N,GND*%
X6350000Y15494000D03*
X6223000Y6477000D03*
X3429000Y11430000D03*
X1905000Y16383000D03*
%TD*%
D13*
%TO.N,GND*%
G36*
X6340240Y660000D02*
G01*
X-916731Y660000D01*
X-821001Y755730D01*
X-401307Y1383846D01*
X-112217Y2081772D01*
X35160Y2822685D01*
X35160Y3578115D01*
X-112217Y4319028D01*
X-401307Y5016954D01*
X-821001Y5645070D01*
X-1355170Y6179239D01*
X-1983286Y6598933D01*
X-2681212Y6888023D01*
X-3422125Y7035400D01*
X-4177555Y7035400D01*
X-4918468Y6888023D01*
X-5616394Y6598933D01*
X-6244510Y6179239D01*
X-6340240Y6083509D01*
X-6340240Y12573244D01*
X-6329099Y12556570D01*
X-5794930Y12022401D01*
X-5166814Y11602707D01*
X-4468888Y11313617D01*
X-3727975Y11166240D01*
X-2972545Y11166240D01*
X-2231632Y11313617D01*
X-1533706Y11602707D01*
X-905590Y12022401D01*
X-371421Y12556570D01*
X48273Y13184686D01*
X337363Y13882612D01*
X484740Y14623525D01*
X484740Y15378955D01*
X337363Y16119868D01*
X48273Y16817794D01*
X-371421Y17445910D01*
X-464611Y17539100D01*
X6340241Y17539100D01*
X6340240Y660000D01*
G37*
X6340240Y660000D02*
X-916731Y660000D01*
X-821001Y755730D01*
X-401307Y1383846D01*
X-112217Y2081772D01*
X35160Y2822685D01*
X35160Y3578115D01*
X-112217Y4319028D01*
X-401307Y5016954D01*
X-821001Y5645070D01*
X-1355170Y6179239D01*
X-1983286Y6598933D01*
X-2681212Y6888023D01*
X-3422125Y7035400D01*
X-4177555Y7035400D01*
X-4918468Y6888023D01*
X-5616394Y6598933D01*
X-6244510Y6179239D01*
X-6340240Y6083509D01*
X-6340240Y12573244D01*
X-6329099Y12556570D01*
X-5794930Y12022401D01*
X-5166814Y11602707D01*
X-4468888Y11313617D01*
X-3727975Y11166240D01*
X-2972545Y11166240D01*
X-2231632Y11313617D01*
X-1533706Y11602707D01*
X-905590Y12022401D01*
X-371421Y12556570D01*
X48273Y13184686D01*
X337363Y13882612D01*
X484740Y14623525D01*
X484740Y15378955D01*
X337363Y16119868D01*
X48273Y16817794D01*
X-371421Y17445910D01*
X-464611Y17539100D01*
X6340241Y17539100D01*
X6340240Y660000D01*
%TD*%
M02*
