%TF.GenerationSoftware,KiCad,Pcbnew,(5.1.6)-1*%
%TF.CreationDate,2021-05-10T20:56:14-04:00*%
%TF.ProjectId,magswitch,6d616773-7769-4746-9368-2e6b69636164,rev?*%
%TF.SameCoordinates,Original*%
%TF.FileFunction,Legend,Top*%
%TF.FilePolarity,Positive*%
%FSLAX46Y46*%
G04 Gerber Fmt 4.6, Leading zero omitted, Abs format (unit mm)*
G04 Created by KiCad (PCBNEW (5.1.6)-1) date 2021-05-10 20:56:14*
%MOMM*%
%LPD*%
G01*
G04 APERTURE LIST*
%ADD10C,0.125000*%
%ADD11C,0.120000*%
%ADD12C,0.150000*%
%ADD13C,0.075000*%
G04 APERTURE END LIST*
D10*
X-1131000Y918714D02*
X-988142Y918714D01*
X-916714Y883000D01*
X-845285Y811571D01*
X-809571Y668714D01*
X-809571Y418714D01*
X-845285Y275857D01*
X-916714Y204428D01*
X-988142Y168714D01*
X-1131000Y168714D01*
X-1202428Y204428D01*
X-1273857Y275857D01*
X-1309571Y418714D01*
X-1309571Y668714D01*
X-1273857Y811571D01*
X-1202428Y883000D01*
X-1131000Y918714D01*
X-488142Y918714D02*
X-488142Y311571D01*
X-452428Y240142D01*
X-416714Y204428D01*
X-345285Y168714D01*
X-202428Y168714D01*
X-131000Y204428D01*
X-95285Y240142D01*
X-59571Y311571D01*
X-59571Y918714D01*
X190428Y918714D02*
X618999Y918714D01*
X404714Y168714D02*
X404714Y918714D01*
X-63428Y6217000D02*
X-134857Y6252714D01*
X-242000Y6252714D01*
X-349142Y6217000D01*
X-420571Y6145571D01*
X-456285Y6074142D01*
X-491999Y5931285D01*
X-491999Y5824142D01*
X-456285Y5681285D01*
X-420571Y5609857D01*
X-349142Y5538428D01*
X-242000Y5502714D01*
X-170571Y5502714D01*
X-63428Y5538428D01*
X-27714Y5574142D01*
X-27714Y5824142D01*
X-170571Y5824142D01*
X293714Y5502714D02*
X293714Y6252714D01*
X722285Y5502714D01*
X722285Y6252714D01*
X1079428Y5502714D02*
X1079428Y6252714D01*
X1257999Y6252714D01*
X1365142Y6217000D01*
X1436571Y6145571D01*
X1472285Y6074142D01*
X1508000Y5931285D01*
X1508000Y5824142D01*
X1472285Y5681285D01*
X1436571Y5609857D01*
X1365142Y5538428D01*
X1257999Y5502714D01*
X1079428Y5502714D01*
X-6742857Y17186714D02*
X-6742857Y17936714D01*
X-6385714Y17186714D02*
X-6385714Y17936714D01*
X-5957142Y17186714D01*
X-5957142Y17936714D01*
D11*
%TO.C,C1*%
X5075422Y17728000D02*
X5592578Y17728000D01*
X5075422Y16308000D02*
X5592578Y16308000D01*
%TO.C,Q2*%
X-3302000Y6584000D02*
X148000Y6584000D01*
X-3302000Y6584000D02*
X-5252000Y6584000D01*
X-3302000Y11704000D02*
X-1352000Y11704000D01*
X-3302000Y11704000D02*
X-5252000Y11704000D01*
%TO.C,R1*%
X1756221Y8130000D02*
X2081779Y8130000D01*
X1756221Y7110000D02*
X2081779Y7110000D01*
%TO.C,R4*%
X5713000Y10101733D02*
X5713000Y10444267D01*
X6733000Y10101733D02*
X6733000Y10444267D01*
%TO.C,R3*%
X1592733Y13591000D02*
X1935267Y13591000D01*
X1592733Y12571000D02*
X1935267Y12571000D01*
%TO.C,R2*%
X760000Y10242733D02*
X760000Y10585267D01*
X1780000Y10242733D02*
X1780000Y10585267D01*
%TO.C,D1*%
X4393000Y6885000D02*
X6853000Y6885000D01*
X6853000Y6885000D02*
X6853000Y8355000D01*
X6853000Y8355000D02*
X4393000Y8355000D01*
%TO.C,Q1*%
X2923000Y11867000D02*
X4383000Y11867000D01*
X2923000Y8707000D02*
X5083000Y8707000D01*
X2923000Y8707000D02*
X2923000Y9637000D01*
X2923000Y11867000D02*
X2923000Y10937000D01*
%TO.C,U2*%
X295000Y17029000D02*
X295000Y14579000D01*
X3515000Y15229000D02*
X3515000Y17029000D01*
%TO.C,U1*%
X6094000Y12517000D02*
X6094000Y13447000D01*
X6094000Y15677000D02*
X6094000Y14747000D01*
X6094000Y15677000D02*
X3934000Y15677000D01*
X6094000Y12517000D02*
X4634000Y12517000D01*
%TO.C,Q2*%
D12*
X-3397238Y8596380D02*
X-3492476Y8644000D01*
X-3587714Y8739238D01*
X-3730571Y8882095D01*
X-3825809Y8929714D01*
X-3921047Y8929714D01*
X-3873428Y8691619D02*
X-3968666Y8739238D01*
X-4063904Y8834476D01*
X-4111523Y9024952D01*
X-4111523Y9358285D01*
X-4063904Y9548761D01*
X-3968666Y9644000D01*
X-3873428Y9691619D01*
X-3682952Y9691619D01*
X-3587714Y9644000D01*
X-3492476Y9548761D01*
X-3444857Y9358285D01*
X-3444857Y9024952D01*
X-3492476Y8834476D01*
X-3587714Y8739238D01*
X-3682952Y8691619D01*
X-3873428Y8691619D01*
X-3063904Y9596380D02*
X-3016285Y9644000D01*
X-2921047Y9691619D01*
X-2682952Y9691619D01*
X-2587714Y9644000D01*
X-2540095Y9596380D01*
X-2492476Y9501142D01*
X-2492476Y9405904D01*
X-2540095Y9263047D01*
X-3111523Y8691619D01*
X-2492476Y8691619D01*
%TO.C,U1*%
D13*
X5060190Y13716047D02*
X5464952Y13716047D01*
X5512571Y13739857D01*
X5536380Y13763666D01*
X5560190Y13811285D01*
X5560190Y13906523D01*
X5536380Y13954142D01*
X5512571Y13977952D01*
X5464952Y14001761D01*
X5060190Y14001761D01*
X5560190Y14501761D02*
X5560190Y14216047D01*
X5560190Y14358904D02*
X5060190Y14358904D01*
X5131619Y14311285D01*
X5179238Y14263666D01*
X5203047Y14216047D01*
%TD*%
M02*
