%TF.GenerationSoftware,KiCad,Pcbnew,(5.1.6)-1*%
%TF.CreationDate,2021-05-10T20:56:14-04:00*%
%TF.ProjectId,magswitch,6d616773-7769-4746-9368-2e6b69636164,rev?*%
%TF.SameCoordinates,Original*%
%TF.FileFunction,Legend,Bot*%
%TF.FilePolarity,Positive*%
%FSLAX46Y46*%
G04 Gerber Fmt 4.6, Leading zero omitted, Abs format (unit mm)*
G04 Created by KiCad (PCBNEW (5.1.6)-1) date 2021-05-10 20:56:14*
%MOMM*%
%LPD*%
G01*
G04 APERTURE LIST*
%ADD10C,0.150000*%
%ADD11C,0.250000*%
%ADD12C,0.010000*%
G04 APERTURE END LIST*
D10*
X6073928Y12246619D02*
X6073928Y13246619D01*
X5823928Y12532333D01*
X5573928Y13246619D01*
X5573928Y12246619D01*
X4895357Y12246619D02*
X4895357Y12770428D01*
X4931071Y12865666D01*
X5002500Y12913285D01*
X5145357Y12913285D01*
X5216785Y12865666D01*
X4895357Y12294238D02*
X4966785Y12246619D01*
X5145357Y12246619D01*
X5216785Y12294238D01*
X5252500Y12389476D01*
X5252500Y12484714D01*
X5216785Y12579952D01*
X5145357Y12627571D01*
X4966785Y12627571D01*
X4895357Y12675190D01*
X4216785Y12913285D02*
X4216785Y12103761D01*
X4252500Y12008523D01*
X4288214Y11960904D01*
X4359642Y11913285D01*
X4466785Y11913285D01*
X4538214Y11960904D01*
X4216785Y12294238D02*
X4288214Y12246619D01*
X4431071Y12246619D01*
X4502500Y12294238D01*
X4538214Y12341857D01*
X4573928Y12437095D01*
X4573928Y12722809D01*
X4538214Y12818047D01*
X4502500Y12865666D01*
X4431071Y12913285D01*
X4288214Y12913285D01*
X4216785Y12865666D01*
X3323928Y12294238D02*
X3216785Y12246619D01*
X3038214Y12246619D01*
X2966785Y12294238D01*
X2931071Y12341857D01*
X2895357Y12437095D01*
X2895357Y12532333D01*
X2931071Y12627571D01*
X2966785Y12675190D01*
X3038214Y12722809D01*
X3181071Y12770428D01*
X3252500Y12818047D01*
X3288214Y12865666D01*
X3323928Y12960904D01*
X3323928Y13056142D01*
X3288214Y13151380D01*
X3252500Y13199000D01*
X3181071Y13246619D01*
X3002500Y13246619D01*
X2895357Y13199000D01*
X2645357Y12913285D02*
X2502500Y12246619D01*
X2359642Y12722809D01*
X2216785Y12246619D01*
X2073928Y12913285D01*
X1788214Y12246619D02*
X1788214Y12913285D01*
X1788214Y13246619D02*
X1823928Y13199000D01*
X1788214Y13151380D01*
X1752500Y13199000D01*
X1788214Y13246619D01*
X1788214Y13151380D01*
X1538214Y12913285D02*
X1252500Y12913285D01*
X1431071Y13246619D02*
X1431071Y12389476D01*
X1395357Y12294238D01*
X1323928Y12246619D01*
X1252500Y12246619D01*
X681071Y12294238D02*
X752500Y12246619D01*
X895357Y12246619D01*
X966785Y12294238D01*
X1002500Y12341857D01*
X1038214Y12437095D01*
X1038214Y12722809D01*
X1002500Y12818047D01*
X966785Y12865666D01*
X895357Y12913285D01*
X752500Y12913285D01*
X681071Y12865666D01*
X359642Y12246619D02*
X359642Y13246619D01*
X38214Y12246619D02*
X38214Y12770428D01*
X73928Y12865666D01*
X145357Y12913285D01*
X252500Y12913285D01*
X323928Y12865666D01*
X359642Y12818047D01*
X6145357Y11596619D02*
X5645357Y11596619D01*
X6145357Y10596619D01*
X5645357Y10596619D01*
X5359642Y10691857D02*
X5323928Y10644238D01*
X5359642Y10596619D01*
X5395357Y10644238D01*
X5359642Y10691857D01*
X5359642Y10596619D01*
X4431071Y10596619D02*
X4431071Y11596619D01*
X4181071Y10882333D01*
X3931071Y11596619D01*
X3931071Y10596619D01*
X3288214Y10644238D02*
X3359642Y10596619D01*
X3502500Y10596619D01*
X3573928Y10644238D01*
X3609642Y10739476D01*
X3609642Y11120428D01*
X3573928Y11215666D01*
X3502500Y11263285D01*
X3359642Y11263285D01*
X3288214Y11215666D01*
X3252500Y11120428D01*
X3252500Y11025190D01*
X3609642Y10929952D01*
X2609642Y10596619D02*
X2609642Y11120428D01*
X2645357Y11215666D01*
X2716785Y11263285D01*
X2859642Y11263285D01*
X2931071Y11215666D01*
X2609642Y10644238D02*
X2681071Y10596619D01*
X2859642Y10596619D01*
X2931071Y10644238D01*
X2966785Y10739476D01*
X2966785Y10834714D01*
X2931071Y10929952D01*
X2859642Y10977571D01*
X2681071Y10977571D01*
X2609642Y11025190D01*
X2252500Y10596619D02*
X2252500Y11263285D01*
X2252500Y11072809D02*
X2216785Y11168047D01*
X2181071Y11215666D01*
X2109642Y11263285D01*
X2038214Y11263285D01*
X1823928Y10644238D02*
X1752500Y10596619D01*
X1609642Y10596619D01*
X1538214Y10644238D01*
X1502500Y10739476D01*
X1502500Y10787095D01*
X1538214Y10882333D01*
X1609642Y10929952D01*
X1716785Y10929952D01*
X1788214Y10977571D01*
X1823928Y11072809D01*
X1823928Y11120428D01*
X1788214Y11215666D01*
X1716785Y11263285D01*
X1609642Y11263285D01*
X1538214Y11215666D01*
X6109642Y9851380D02*
X6073928Y9899000D01*
X6002500Y9946619D01*
X5823928Y9946619D01*
X5752500Y9899000D01*
X5716785Y9851380D01*
X5681071Y9756142D01*
X5681071Y9660904D01*
X5716785Y9518047D01*
X6145357Y8946619D01*
X5681071Y8946619D01*
X5216785Y9946619D02*
X5145357Y9946619D01*
X5073928Y9899000D01*
X5038214Y9851380D01*
X5002500Y9756142D01*
X4966785Y9565666D01*
X4966785Y9327571D01*
X5002500Y9137095D01*
X5038214Y9041857D01*
X5073928Y8994238D01*
X5145357Y8946619D01*
X5216785Y8946619D01*
X5288214Y8994238D01*
X5323928Y9041857D01*
X5359642Y9137095D01*
X5395357Y9327571D01*
X5395357Y9565666D01*
X5359642Y9756142D01*
X5323928Y9851380D01*
X5288214Y9899000D01*
X5216785Y9946619D01*
X4681071Y9851380D02*
X4645357Y9899000D01*
X4573928Y9946619D01*
X4395357Y9946619D01*
X4323928Y9899000D01*
X4288214Y9851380D01*
X4252500Y9756142D01*
X4252500Y9660904D01*
X4288214Y9518047D01*
X4716785Y8946619D01*
X4252500Y8946619D01*
X3538214Y8946619D02*
X3966785Y8946619D01*
X3752499Y8946619D02*
X3752499Y9946619D01*
X3823928Y9803761D01*
X3895357Y9708523D01*
X3966785Y9660904D01*
X3216785Y9327571D02*
X2645357Y9327571D01*
X2145357Y9946619D02*
X2073928Y9946619D01*
X2002499Y9899000D01*
X1966785Y9851380D01*
X1931071Y9756142D01*
X1895357Y9565666D01*
X1895357Y9327571D01*
X1931071Y9137095D01*
X1966785Y9041857D01*
X2002499Y8994238D01*
X2073928Y8946619D01*
X2145357Y8946619D01*
X2216785Y8994238D01*
X2252499Y9041857D01*
X2288214Y9137095D01*
X2323928Y9327571D01*
X2323928Y9565666D01*
X2288214Y9756142D01*
X2252499Y9851380D01*
X2216785Y9899000D01*
X2145357Y9946619D01*
X1252499Y9613285D02*
X1252499Y8946619D01*
X1431071Y9994238D02*
X1609642Y9279952D01*
X1145357Y9279952D01*
X859642Y9327571D02*
X288214Y9327571D01*
X-461785Y8946619D02*
X-33214Y8946619D01*
X-247500Y8946619D02*
X-247500Y9946619D01*
X-176071Y9803761D01*
X-104642Y9708523D01*
X-33214Y9660904D01*
X-926071Y9946619D02*
X-997500Y9946619D01*
X-1068928Y9899000D01*
X-1104642Y9851380D01*
X-1140357Y9756142D01*
X-1176071Y9565666D01*
X-1176071Y9327571D01*
X-1140357Y9137095D01*
X-1104642Y9041857D01*
X-1068928Y8994238D01*
X-997500Y8946619D01*
X-926071Y8946619D01*
X-854642Y8994238D01*
X-818928Y9041857D01*
X-783214Y9137095D01*
X-747500Y9327571D01*
X-747500Y9565666D01*
X-783214Y9756142D01*
X-818928Y9851380D01*
X-854642Y9899000D01*
X-926071Y9946619D01*
D11*
X-2310000Y8695428D02*
X-2595714Y8695428D01*
X-2738571Y8624000D01*
X-2881428Y8481142D01*
X-2952857Y8195428D01*
X-2952857Y7695428D01*
X-2881428Y7409714D01*
X-2738571Y7266857D01*
X-2595714Y7195428D01*
X-2310000Y7195428D01*
X-2167142Y7266857D01*
X-2024285Y7409714D01*
X-1952857Y7695428D01*
X-1952857Y8195428D01*
X-2024285Y8481142D01*
X-2167142Y8624000D01*
X-2310000Y8695428D01*
X-3595714Y8695428D02*
X-3595714Y7481142D01*
X-3667142Y7338285D01*
X-3738571Y7266857D01*
X-3881428Y7195428D01*
X-4167142Y7195428D01*
X-4310000Y7266857D01*
X-4381428Y7338285D01*
X-4452857Y7481142D01*
X-4452857Y8695428D01*
X-4952857Y8695428D02*
X-5809999Y8695428D01*
X-5381428Y7195428D02*
X-5381428Y8695428D01*
X4952857Y8243000D02*
X5095714Y8314428D01*
X5310000Y8314428D01*
X5524285Y8243000D01*
X5667142Y8100142D01*
X5738571Y7957285D01*
X5810000Y7671571D01*
X5810000Y7457285D01*
X5738571Y7171571D01*
X5667142Y7028714D01*
X5524285Y6885857D01*
X5310000Y6814428D01*
X5167142Y6814428D01*
X4952857Y6885857D01*
X4881428Y6957285D01*
X4881428Y7457285D01*
X5167142Y7457285D01*
X4238571Y6814428D02*
X4238571Y8314428D01*
X3381428Y6814428D01*
X3381428Y8314428D01*
X2667142Y6814428D02*
X2667142Y8314428D01*
X2310000Y8314428D01*
X2095714Y8243000D01*
X1952857Y8100142D01*
X1881428Y7957285D01*
X1810000Y7671571D01*
X1810000Y7457285D01*
X1881428Y7171571D01*
X1952857Y7028714D01*
X2095714Y6885857D01*
X2310000Y6814428D01*
X2667142Y6814428D01*
X-2516285Y9608428D02*
X-2516285Y11108428D01*
X-3230571Y9608428D02*
X-3230571Y11108428D01*
X-4087714Y9608428D01*
X-4087714Y11108428D01*
D12*
%TO.C,G\u002A\u002A\u002A*%
G36*
X3421086Y17723095D02*
G01*
X3410484Y17705931D01*
X3394267Y17678506D01*
X3372983Y17641785D01*
X3347183Y17596731D01*
X3317417Y17544310D01*
X3284235Y17485485D01*
X3248187Y17421222D01*
X3209824Y17352483D01*
X3176553Y17292606D01*
X3136631Y17220633D01*
X3098602Y17152105D01*
X3063017Y17088012D01*
X3030426Y17029344D01*
X3001381Y16977092D01*
X2976431Y16932245D01*
X2956127Y16895795D01*
X2941020Y16868730D01*
X2931661Y16852042D01*
X2928666Y16846803D01*
X2924443Y16845399D01*
X2914590Y16847050D01*
X2898087Y16852149D01*
X2873910Y16861091D01*
X2841038Y16874272D01*
X2798449Y16892084D01*
X2745120Y16914924D01*
X2688217Y16939615D01*
X2634771Y16962740D01*
X2585367Y16983802D01*
X2541445Y17002210D01*
X2504443Y17017375D01*
X2475801Y17028707D01*
X2456957Y17035618D01*
X2449349Y17037518D01*
X2449300Y17037483D01*
X2449320Y17030077D01*
X2450605Y17009792D01*
X2453070Y16977601D01*
X2456629Y16934478D01*
X2461195Y16881395D01*
X2466682Y16819327D01*
X2473005Y16749245D01*
X2480076Y16672124D01*
X2487810Y16588936D01*
X2496120Y16500655D01*
X2504920Y16408253D01*
X2506394Y16392887D01*
X2515279Y16299942D01*
X2523718Y16210986D01*
X2531621Y16126990D01*
X2538901Y16048923D01*
X2545468Y15977756D01*
X2551236Y15914459D01*
X2556115Y15860002D01*
X2560017Y15815357D01*
X2562854Y15781493D01*
X2564538Y15759381D01*
X2564980Y15749990D01*
X2564927Y15749731D01*
X2559348Y15753689D01*
X2544312Y15766113D01*
X2520743Y15786197D01*
X2489566Y15813137D01*
X2451704Y15846127D01*
X2408082Y15884364D01*
X2359624Y15927041D01*
X2307255Y15973354D01*
X2260939Y16014460D01*
X2205892Y16063306D01*
X2153900Y16109277D01*
X2105900Y16151555D01*
X2062826Y16189324D01*
X2025615Y16221767D01*
X1995203Y16248069D01*
X1972525Y16267413D01*
X1958518Y16278982D01*
X1954147Y16282095D01*
X1952022Y16280537D01*
X1948758Y16275092D01*
X1943901Y16264602D01*
X1936999Y16247911D01*
X1927599Y16223862D01*
X1915249Y16191298D01*
X1899497Y16149061D01*
X1879889Y16095996D01*
X1857247Y16034417D01*
X1836573Y15978108D01*
X1895874Y15909698D01*
X1972384Y15819194D01*
X2052633Y15720105D01*
X2135496Y15614040D01*
X2219847Y15502609D01*
X2304560Y15387422D01*
X2388510Y15270089D01*
X2470571Y15152221D01*
X2549618Y15035427D01*
X2624524Y14921317D01*
X2694164Y14811501D01*
X2757413Y14707590D01*
X2813144Y14611193D01*
X2846808Y14549563D01*
X2884599Y14478377D01*
X2907555Y14511742D01*
X2951316Y14580105D01*
X2996661Y14659778D01*
X3042500Y14748413D01*
X3087743Y14843663D01*
X3131298Y14943179D01*
X3172075Y15044613D01*
X3208984Y15145617D01*
X3227192Y15199986D01*
X3260025Y15307020D01*
X3292889Y15424603D01*
X3324955Y15549394D01*
X3355395Y15678052D01*
X3383381Y15807234D01*
X3405154Y15917803D01*
X3424871Y16023236D01*
X3460696Y15844734D01*
X3500287Y15658848D01*
X3541993Y15485710D01*
X3586190Y15324262D01*
X3633253Y15173444D01*
X3683557Y15032197D01*
X3737478Y14899461D01*
X3795391Y14774178D01*
X3857670Y14655286D01*
X3918731Y14551311D01*
X3935356Y14524896D01*
X3949568Y14503144D01*
X3959643Y14488644D01*
X3963554Y14484011D01*
X3968719Y14488361D01*
X3978334Y14502660D01*
X3990763Y14524341D01*
X3998037Y14538151D01*
X4038485Y14613516D01*
X4087109Y14697939D01*
X4142921Y14790005D01*
X4204934Y14888298D01*
X4272159Y14991403D01*
X4343609Y15097903D01*
X4418296Y15206384D01*
X4495231Y15315428D01*
X4573426Y15423621D01*
X4651894Y15529546D01*
X4729647Y15631787D01*
X4805696Y15728930D01*
X4879053Y15819558D01*
X4948731Y15902255D01*
X4955167Y15909698D01*
X5014467Y15978108D01*
X4993794Y16034417D01*
X4970096Y16098864D01*
X4950684Y16151382D01*
X4935108Y16193126D01*
X4922915Y16225252D01*
X4913653Y16248918D01*
X4906870Y16265278D01*
X4902114Y16275490D01*
X4898933Y16280709D01*
X4896968Y16282095D01*
X4890878Y16277599D01*
X4875336Y16264655D01*
X4851280Y16244079D01*
X4819645Y16216687D01*
X4781366Y16183294D01*
X4737380Y16144717D01*
X4688622Y16101772D01*
X4636029Y16055274D01*
X4590099Y16014538D01*
X4535136Y15965809D01*
X4483313Y15920038D01*
X4435554Y15878027D01*
X4392782Y15840582D01*
X4355922Y15808508D01*
X4325898Y15782610D01*
X4303634Y15763691D01*
X4290055Y15752556D01*
X4286036Y15749808D01*
X4286275Y15756991D01*
X4287770Y15777056D01*
X4290433Y15809034D01*
X4294175Y15851953D01*
X4298907Y15904845D01*
X4304541Y15966739D01*
X4310989Y16036664D01*
X4318162Y16113650D01*
X4325973Y16196728D01*
X4334331Y16284927D01*
X4335411Y16296241D01*
X3678380Y16296241D01*
X3675837Y16295499D01*
X3665612Y16303030D01*
X3649832Y16317236D01*
X3647790Y16319194D01*
X3623172Y16339687D01*
X3592582Y16360692D01*
X3564698Y16376571D01*
X3502588Y16400156D01*
X3439539Y16410226D01*
X3376927Y16406990D01*
X3316128Y16390657D01*
X3258519Y16361437D01*
X3208548Y16322447D01*
X3190738Y16306581D01*
X3178096Y16296876D01*
X3172708Y16294876D01*
X3172819Y16296013D01*
X3175503Y16304383D01*
X3181953Y16324849D01*
X3191796Y16356219D01*
X3204659Y16397302D01*
X3220170Y16446904D01*
X3237956Y16503836D01*
X3257643Y16566903D01*
X3278860Y16634915D01*
X3300120Y16703109D01*
X3322353Y16774400D01*
X3343342Y16841629D01*
X3362727Y16903639D01*
X3380143Y16959272D01*
X3395229Y17007372D01*
X3407620Y17046781D01*
X3416954Y17076342D01*
X3422869Y17094897D01*
X3424996Y17101288D01*
X3427230Y17095112D01*
X3433235Y17076790D01*
X3442648Y17047464D01*
X3455109Y17008278D01*
X3470255Y16960376D01*
X3487726Y16904900D01*
X3507159Y16842995D01*
X3528193Y16775804D01*
X3550417Y16704630D01*
X3572799Y16632891D01*
X3594009Y16564968D01*
X3613676Y16502049D01*
X3631427Y16445323D01*
X3646888Y16395979D01*
X3659689Y16355205D01*
X3669456Y16324189D01*
X3675817Y16304121D01*
X3678380Y16296241D01*
X4335411Y16296241D01*
X4343150Y16377276D01*
X4344647Y16392887D01*
X4353518Y16485869D01*
X4361912Y16574890D01*
X4369743Y16658977D01*
X4376924Y16737157D01*
X4383369Y16808457D01*
X4388992Y16871902D01*
X4393707Y16926521D01*
X4397428Y16971339D01*
X4400069Y17005383D01*
X4401543Y17027680D01*
X4401765Y17037258D01*
X4401677Y17037546D01*
X4394514Y17035872D01*
X4376062Y17029168D01*
X4347764Y17018026D01*
X4311062Y17003034D01*
X4267401Y16984782D01*
X4218225Y16963861D01*
X4164976Y16940861D01*
X4163875Y16940382D01*
X4110614Y16917230D01*
X4061494Y16895931D01*
X4017947Y16877101D01*
X3981404Y16861358D01*
X3953295Y16849317D01*
X3935051Y16841595D01*
X3928105Y16838809D01*
X3928091Y16838808D01*
X3924415Y16844739D01*
X3914540Y16861897D01*
X3898998Y16889328D01*
X3878323Y16926078D01*
X3853048Y16971194D01*
X3823707Y17023721D01*
X3790833Y17082707D01*
X3754960Y17147196D01*
X3716622Y17216237D01*
X3679089Y17283934D01*
X3638851Y17356394D01*
X3600468Y17425189D01*
X3564484Y17489364D01*
X3531442Y17547964D01*
X3501887Y17600033D01*
X3476362Y17644618D01*
X3455413Y17680762D01*
X3439582Y17707511D01*
X3429415Y17723909D01*
X3425520Y17729033D01*
X3421086Y17723095D01*
G37*
X3421086Y17723095D02*
X3410484Y17705931D01*
X3394267Y17678506D01*
X3372983Y17641785D01*
X3347183Y17596731D01*
X3317417Y17544310D01*
X3284235Y17485485D01*
X3248187Y17421222D01*
X3209824Y17352483D01*
X3176553Y17292606D01*
X3136631Y17220633D01*
X3098602Y17152105D01*
X3063017Y17088012D01*
X3030426Y17029344D01*
X3001381Y16977092D01*
X2976431Y16932245D01*
X2956127Y16895795D01*
X2941020Y16868730D01*
X2931661Y16852042D01*
X2928666Y16846803D01*
X2924443Y16845399D01*
X2914590Y16847050D01*
X2898087Y16852149D01*
X2873910Y16861091D01*
X2841038Y16874272D01*
X2798449Y16892084D01*
X2745120Y16914924D01*
X2688217Y16939615D01*
X2634771Y16962740D01*
X2585367Y16983802D01*
X2541445Y17002210D01*
X2504443Y17017375D01*
X2475801Y17028707D01*
X2456957Y17035618D01*
X2449349Y17037518D01*
X2449300Y17037483D01*
X2449320Y17030077D01*
X2450605Y17009792D01*
X2453070Y16977601D01*
X2456629Y16934478D01*
X2461195Y16881395D01*
X2466682Y16819327D01*
X2473005Y16749245D01*
X2480076Y16672124D01*
X2487810Y16588936D01*
X2496120Y16500655D01*
X2504920Y16408253D01*
X2506394Y16392887D01*
X2515279Y16299942D01*
X2523718Y16210986D01*
X2531621Y16126990D01*
X2538901Y16048923D01*
X2545468Y15977756D01*
X2551236Y15914459D01*
X2556115Y15860002D01*
X2560017Y15815357D01*
X2562854Y15781493D01*
X2564538Y15759381D01*
X2564980Y15749990D01*
X2564927Y15749731D01*
X2559348Y15753689D01*
X2544312Y15766113D01*
X2520743Y15786197D01*
X2489566Y15813137D01*
X2451704Y15846127D01*
X2408082Y15884364D01*
X2359624Y15927041D01*
X2307255Y15973354D01*
X2260939Y16014460D01*
X2205892Y16063306D01*
X2153900Y16109277D01*
X2105900Y16151555D01*
X2062826Y16189324D01*
X2025615Y16221767D01*
X1995203Y16248069D01*
X1972525Y16267413D01*
X1958518Y16278982D01*
X1954147Y16282095D01*
X1952022Y16280537D01*
X1948758Y16275092D01*
X1943901Y16264602D01*
X1936999Y16247911D01*
X1927599Y16223862D01*
X1915249Y16191298D01*
X1899497Y16149061D01*
X1879889Y16095996D01*
X1857247Y16034417D01*
X1836573Y15978108D01*
X1895874Y15909698D01*
X1972384Y15819194D01*
X2052633Y15720105D01*
X2135496Y15614040D01*
X2219847Y15502609D01*
X2304560Y15387422D01*
X2388510Y15270089D01*
X2470571Y15152221D01*
X2549618Y15035427D01*
X2624524Y14921317D01*
X2694164Y14811501D01*
X2757413Y14707590D01*
X2813144Y14611193D01*
X2846808Y14549563D01*
X2884599Y14478377D01*
X2907555Y14511742D01*
X2951316Y14580105D01*
X2996661Y14659778D01*
X3042500Y14748413D01*
X3087743Y14843663D01*
X3131298Y14943179D01*
X3172075Y15044613D01*
X3208984Y15145617D01*
X3227192Y15199986D01*
X3260025Y15307020D01*
X3292889Y15424603D01*
X3324955Y15549394D01*
X3355395Y15678052D01*
X3383381Y15807234D01*
X3405154Y15917803D01*
X3424871Y16023236D01*
X3460696Y15844734D01*
X3500287Y15658848D01*
X3541993Y15485710D01*
X3586190Y15324262D01*
X3633253Y15173444D01*
X3683557Y15032197D01*
X3737478Y14899461D01*
X3795391Y14774178D01*
X3857670Y14655286D01*
X3918731Y14551311D01*
X3935356Y14524896D01*
X3949568Y14503144D01*
X3959643Y14488644D01*
X3963554Y14484011D01*
X3968719Y14488361D01*
X3978334Y14502660D01*
X3990763Y14524341D01*
X3998037Y14538151D01*
X4038485Y14613516D01*
X4087109Y14697939D01*
X4142921Y14790005D01*
X4204934Y14888298D01*
X4272159Y14991403D01*
X4343609Y15097903D01*
X4418296Y15206384D01*
X4495231Y15315428D01*
X4573426Y15423621D01*
X4651894Y15529546D01*
X4729647Y15631787D01*
X4805696Y15728930D01*
X4879053Y15819558D01*
X4948731Y15902255D01*
X4955167Y15909698D01*
X5014467Y15978108D01*
X4993794Y16034417D01*
X4970096Y16098864D01*
X4950684Y16151382D01*
X4935108Y16193126D01*
X4922915Y16225252D01*
X4913653Y16248918D01*
X4906870Y16265278D01*
X4902114Y16275490D01*
X4898933Y16280709D01*
X4896968Y16282095D01*
X4890878Y16277599D01*
X4875336Y16264655D01*
X4851280Y16244079D01*
X4819645Y16216687D01*
X4781366Y16183294D01*
X4737380Y16144717D01*
X4688622Y16101772D01*
X4636029Y16055274D01*
X4590099Y16014538D01*
X4535136Y15965809D01*
X4483313Y15920038D01*
X4435554Y15878027D01*
X4392782Y15840582D01*
X4355922Y15808508D01*
X4325898Y15782610D01*
X4303634Y15763691D01*
X4290055Y15752556D01*
X4286036Y15749808D01*
X4286275Y15756991D01*
X4287770Y15777056D01*
X4290433Y15809034D01*
X4294175Y15851953D01*
X4298907Y15904845D01*
X4304541Y15966739D01*
X4310989Y16036664D01*
X4318162Y16113650D01*
X4325973Y16196728D01*
X4334331Y16284927D01*
X4335411Y16296241D01*
X3678380Y16296241D01*
X3675837Y16295499D01*
X3665612Y16303030D01*
X3649832Y16317236D01*
X3647790Y16319194D01*
X3623172Y16339687D01*
X3592582Y16360692D01*
X3564698Y16376571D01*
X3502588Y16400156D01*
X3439539Y16410226D01*
X3376927Y16406990D01*
X3316128Y16390657D01*
X3258519Y16361437D01*
X3208548Y16322447D01*
X3190738Y16306581D01*
X3178096Y16296876D01*
X3172708Y16294876D01*
X3172819Y16296013D01*
X3175503Y16304383D01*
X3181953Y16324849D01*
X3191796Y16356219D01*
X3204659Y16397302D01*
X3220170Y16446904D01*
X3237956Y16503836D01*
X3257643Y16566903D01*
X3278860Y16634915D01*
X3300120Y16703109D01*
X3322353Y16774400D01*
X3343342Y16841629D01*
X3362727Y16903639D01*
X3380143Y16959272D01*
X3395229Y17007372D01*
X3407620Y17046781D01*
X3416954Y17076342D01*
X3422869Y17094897D01*
X3424996Y17101288D01*
X3427230Y17095112D01*
X3433235Y17076790D01*
X3442648Y17047464D01*
X3455109Y17008278D01*
X3470255Y16960376D01*
X3487726Y16904900D01*
X3507159Y16842995D01*
X3528193Y16775804D01*
X3550417Y16704630D01*
X3572799Y16632891D01*
X3594009Y16564968D01*
X3613676Y16502049D01*
X3631427Y16445323D01*
X3646888Y16395979D01*
X3659689Y16355205D01*
X3669456Y16324189D01*
X3675817Y16304121D01*
X3678380Y16296241D01*
X4335411Y16296241D01*
X4343150Y16377276D01*
X4344647Y16392887D01*
X4353518Y16485869D01*
X4361912Y16574890D01*
X4369743Y16658977D01*
X4376924Y16737157D01*
X4383369Y16808457D01*
X4388992Y16871902D01*
X4393707Y16926521D01*
X4397428Y16971339D01*
X4400069Y17005383D01*
X4401543Y17027680D01*
X4401765Y17037258D01*
X4401677Y17037546D01*
X4394514Y17035872D01*
X4376062Y17029168D01*
X4347764Y17018026D01*
X4311062Y17003034D01*
X4267401Y16984782D01*
X4218225Y16963861D01*
X4164976Y16940861D01*
X4163875Y16940382D01*
X4110614Y16917230D01*
X4061494Y16895931D01*
X4017947Y16877101D01*
X3981404Y16861358D01*
X3953295Y16849317D01*
X3935051Y16841595D01*
X3928105Y16838809D01*
X3928091Y16838808D01*
X3924415Y16844739D01*
X3914540Y16861897D01*
X3898998Y16889328D01*
X3878323Y16926078D01*
X3853048Y16971194D01*
X3823707Y17023721D01*
X3790833Y17082707D01*
X3754960Y17147196D01*
X3716622Y17216237D01*
X3679089Y17283934D01*
X3638851Y17356394D01*
X3600468Y17425189D01*
X3564484Y17489364D01*
X3531442Y17547964D01*
X3501887Y17600033D01*
X3476362Y17644618D01*
X3455413Y17680762D01*
X3439582Y17707511D01*
X3429415Y17723909D01*
X3425520Y17729033D01*
X3421086Y17723095D01*
G36*
X5828303Y16027030D02*
G01*
X5808967Y16023600D01*
X5778648Y16017970D01*
X5738681Y16010395D01*
X5690401Y16001129D01*
X5635141Y15990428D01*
X5574238Y15978545D01*
X5509024Y15965737D01*
X5507906Y15965516D01*
X5427323Y15949526D01*
X5359525Y15935818D01*
X5303604Y15924185D01*
X5258652Y15914420D01*
X5223761Y15906317D01*
X5198022Y15899670D01*
X5180526Y15894271D01*
X5170367Y15889915D01*
X5167898Y15888196D01*
X5155426Y15874773D01*
X5136274Y15851344D01*
X5111553Y15819434D01*
X5082376Y15780567D01*
X5049856Y15736268D01*
X5015104Y15688063D01*
X4979233Y15637476D01*
X4943356Y15586031D01*
X4908585Y15535255D01*
X4886727Y15502766D01*
X4783458Y15343666D01*
X4682281Y15179224D01*
X4584346Y15011571D01*
X4490801Y14842837D01*
X4402798Y14675153D01*
X4321487Y14510648D01*
X4248016Y14351454D01*
X4184218Y14201383D01*
X4168134Y14160370D01*
X4150650Y14113562D01*
X4132589Y14063382D01*
X4114770Y14012251D01*
X4098013Y13962591D01*
X4083140Y13916824D01*
X4070970Y13877371D01*
X4062324Y13846654D01*
X4058611Y13830628D01*
X4054353Y13813985D01*
X4049880Y13805155D01*
X4048923Y13804726D01*
X4042246Y13809766D01*
X4027928Y13823858D01*
X4007354Y13845459D01*
X3981912Y13873027D01*
X3952984Y13905019D01*
X3921958Y13939892D01*
X3890218Y13976103D01*
X3859149Y14012111D01*
X3830136Y14046372D01*
X3808951Y14071960D01*
X3744069Y14153860D01*
X3684320Y14234877D01*
X3627583Y14318188D01*
X3571732Y14406965D01*
X3514646Y14504385D01*
X3488188Y14551529D01*
X3468487Y14586243D01*
X3450834Y14615834D01*
X3436380Y14638495D01*
X3426272Y14652421D01*
X3421741Y14655912D01*
X3416474Y14647854D01*
X3406157Y14630152D01*
X3392295Y14605444D01*
X3376822Y14577164D01*
X3299911Y14441284D01*
X3221753Y14316190D01*
X3140290Y14198775D01*
X3053463Y14085930D01*
X3042663Y14072643D01*
X3016219Y14040789D01*
X2986616Y14005960D01*
X2955233Y13969694D01*
X2923455Y13933532D01*
X2892661Y13899011D01*
X2864234Y13867671D01*
X2839555Y13841052D01*
X2820008Y13820691D01*
X2806972Y13808128D01*
X2802117Y13804726D01*
X2797871Y13810819D01*
X2793390Y13825931D01*
X2792429Y13830628D01*
X2787014Y13853074D01*
X2777451Y13886100D01*
X2764560Y13927283D01*
X2749162Y13974201D01*
X2732076Y14024433D01*
X2714124Y14075557D01*
X2696127Y14125151D01*
X2678903Y14170794D01*
X2666822Y14201383D01*
X2603508Y14350299D01*
X2531341Y14506739D01*
X2451482Y14668558D01*
X2365088Y14833610D01*
X2273317Y14999749D01*
X2177328Y15164829D01*
X2078278Y15326704D01*
X1977325Y15483228D01*
X1965005Y15501749D01*
X1931622Y15551178D01*
X1896389Y15602306D01*
X1860415Y15653611D01*
X1824812Y15703570D01*
X1790688Y15750661D01*
X1759155Y15793361D01*
X1731322Y15830146D01*
X1708300Y15859496D01*
X1691198Y15879886D01*
X1683447Y15887921D01*
X1676094Y15891889D01*
X1661209Y15896934D01*
X1637943Y15903248D01*
X1605448Y15911023D01*
X1562876Y15920453D01*
X1509376Y15931729D01*
X1444102Y15945045D01*
X1366205Y15960593D01*
X1343439Y15965092D01*
X1278134Y15977936D01*
X1217116Y15989863D01*
X1161719Y16000618D01*
X1113276Y16009945D01*
X1073122Y16017588D01*
X1042591Y16023292D01*
X1023015Y16026802D01*
X1015729Y16027863D01*
X1015718Y16027857D01*
X1017129Y16021157D01*
X1021643Y16002354D01*
X1028908Y15972829D01*
X1038576Y15933961D01*
X1050296Y15887131D01*
X1063718Y15833718D01*
X1078491Y15775103D01*
X1094267Y15712666D01*
X1110693Y15647786D01*
X1127421Y15581845D01*
X1144101Y15516221D01*
X1160381Y15452296D01*
X1175913Y15391449D01*
X1190345Y15335060D01*
X1203328Y15284509D01*
X1214512Y15241177D01*
X1223546Y15206443D01*
X1230080Y15181688D01*
X1233765Y15168292D01*
X1233924Y15167759D01*
X1232235Y15162459D01*
X1223932Y15154402D01*
X1207941Y15142884D01*
X1183185Y15127196D01*
X1148587Y15106634D01*
X1103071Y15080489D01*
X1087535Y15071683D01*
X1046305Y15048160D01*
X1009416Y15026715D01*
X978506Y15008334D01*
X955214Y14994003D01*
X941179Y14984706D01*
X937712Y14981600D01*
X943425Y14977189D01*
X960091Y14965653D01*
X986997Y14947462D01*
X1023433Y14923087D01*
X1068688Y14892996D01*
X1122050Y14857660D01*
X1182808Y14817548D01*
X1250251Y14773130D01*
X1323668Y14724875D01*
X1402347Y14673254D01*
X1485577Y14618736D01*
X1572648Y14561790D01*
X1640481Y14517485D01*
X1729991Y14458998D01*
X1816200Y14402559D01*
X1898395Y14348640D01*
X1975864Y14297712D01*
X2047897Y14250248D01*
X2113782Y14206718D01*
X2172806Y14167593D01*
X2224259Y14133346D01*
X2267428Y14104449D01*
X2301602Y14081371D01*
X2326070Y14064586D01*
X2340119Y14054564D01*
X2343391Y14051767D01*
X2341383Y14043815D01*
X2335595Y14024052D01*
X2326473Y13993927D01*
X2314463Y13954891D01*
X2300013Y13908391D01*
X2283570Y13855877D01*
X2265579Y13798800D01*
X2259101Y13778333D01*
X2240813Y13720158D01*
X2224109Y13666142D01*
X2209412Y13617716D01*
X2197142Y13576309D01*
X2187721Y13543351D01*
X2181572Y13520274D01*
X2179115Y13508506D01*
X2179210Y13507319D01*
X2186634Y13507463D01*
X2206889Y13509183D01*
X2238988Y13512369D01*
X2281948Y13516910D01*
X2334783Y13522695D01*
X2396509Y13529615D01*
X2466139Y13537559D01*
X2542691Y13546416D01*
X2625177Y13556076D01*
X2712614Y13566429D01*
X2804017Y13577363D01*
X2804635Y13577438D01*
X3425520Y13652096D01*
X4033682Y13578794D01*
X4124479Y13567873D01*
X4211541Y13557443D01*
X4293846Y13547626D01*
X4370372Y13538540D01*
X4440098Y13530306D01*
X4502003Y13523044D01*
X4555065Y13516874D01*
X4598262Y13511915D01*
X4630573Y13508288D01*
X4650976Y13506112D01*
X4658244Y13505493D01*
X4670843Y13507581D01*
X4674644Y13511268D01*
X4672606Y13518962D01*
X4666792Y13538466D01*
X4657652Y13568331D01*
X4645636Y13607106D01*
X4631194Y13653342D01*
X4614777Y13705588D01*
X4596833Y13762395D01*
X4591137Y13780369D01*
X4572807Y13838356D01*
X4555871Y13892296D01*
X4540779Y13940727D01*
X4527982Y13982186D01*
X4517930Y14015212D01*
X4511074Y14038342D01*
X4507865Y14050113D01*
X4507680Y14051210D01*
X4513401Y14055899D01*
X4530077Y14067705D01*
X4556996Y14086156D01*
X4593447Y14110780D01*
X4638717Y14141106D01*
X4692097Y14176660D01*
X4752873Y14216972D01*
X4820335Y14261567D01*
X4893771Y14309975D01*
X4972470Y14361724D01*
X5055719Y14416340D01*
X5142808Y14473352D01*
X5210529Y14517605D01*
X5300025Y14576082D01*
X5386219Y14632484D01*
X5468398Y14686342D01*
X5545852Y14737186D01*
X5617870Y14784546D01*
X5683741Y14827953D01*
X5742754Y14866936D01*
X5794197Y14901028D01*
X5837359Y14929756D01*
X5871529Y14952654D01*
X5895997Y14969249D01*
X5910050Y14979074D01*
X5913328Y14981720D01*
X5907524Y14986444D01*
X5891203Y14996963D01*
X5866005Y15012293D01*
X5833568Y15031450D01*
X5795532Y15053451D01*
X5763506Y15071683D01*
X5714592Y15099594D01*
X5676911Y15121716D01*
X5649387Y15138757D01*
X5630943Y15151422D01*
X5620503Y15160418D01*
X5616990Y15166452D01*
X5617116Y15167759D01*
X5620584Y15180276D01*
X5626926Y15204254D01*
X5635793Y15238313D01*
X5646835Y15281072D01*
X5659701Y15331151D01*
X5674041Y15387171D01*
X5689505Y15447750D01*
X5705744Y15511508D01*
X5722407Y15577066D01*
X5739143Y15643043D01*
X5755604Y15708059D01*
X5771438Y15770733D01*
X5786295Y15829686D01*
X5799827Y15883537D01*
X5811681Y15930906D01*
X5821509Y15970412D01*
X5828960Y16000676D01*
X5833685Y16020318D01*
X5835332Y16027956D01*
X5835323Y16028006D01*
X5828303Y16027030D01*
G37*
X5828303Y16027030D02*
X5808967Y16023600D01*
X5778648Y16017970D01*
X5738681Y16010395D01*
X5690401Y16001129D01*
X5635141Y15990428D01*
X5574238Y15978545D01*
X5509024Y15965737D01*
X5507906Y15965516D01*
X5427323Y15949526D01*
X5359525Y15935818D01*
X5303604Y15924185D01*
X5258652Y15914420D01*
X5223761Y15906317D01*
X5198022Y15899670D01*
X5180526Y15894271D01*
X5170367Y15889915D01*
X5167898Y15888196D01*
X5155426Y15874773D01*
X5136274Y15851344D01*
X5111553Y15819434D01*
X5082376Y15780567D01*
X5049856Y15736268D01*
X5015104Y15688063D01*
X4979233Y15637476D01*
X4943356Y15586031D01*
X4908585Y15535255D01*
X4886727Y15502766D01*
X4783458Y15343666D01*
X4682281Y15179224D01*
X4584346Y15011571D01*
X4490801Y14842837D01*
X4402798Y14675153D01*
X4321487Y14510648D01*
X4248016Y14351454D01*
X4184218Y14201383D01*
X4168134Y14160370D01*
X4150650Y14113562D01*
X4132589Y14063382D01*
X4114770Y14012251D01*
X4098013Y13962591D01*
X4083140Y13916824D01*
X4070970Y13877371D01*
X4062324Y13846654D01*
X4058611Y13830628D01*
X4054353Y13813985D01*
X4049880Y13805155D01*
X4048923Y13804726D01*
X4042246Y13809766D01*
X4027928Y13823858D01*
X4007354Y13845459D01*
X3981912Y13873027D01*
X3952984Y13905019D01*
X3921958Y13939892D01*
X3890218Y13976103D01*
X3859149Y14012111D01*
X3830136Y14046372D01*
X3808951Y14071960D01*
X3744069Y14153860D01*
X3684320Y14234877D01*
X3627583Y14318188D01*
X3571732Y14406965D01*
X3514646Y14504385D01*
X3488188Y14551529D01*
X3468487Y14586243D01*
X3450834Y14615834D01*
X3436380Y14638495D01*
X3426272Y14652421D01*
X3421741Y14655912D01*
X3416474Y14647854D01*
X3406157Y14630152D01*
X3392295Y14605444D01*
X3376822Y14577164D01*
X3299911Y14441284D01*
X3221753Y14316190D01*
X3140290Y14198775D01*
X3053463Y14085930D01*
X3042663Y14072643D01*
X3016219Y14040789D01*
X2986616Y14005960D01*
X2955233Y13969694D01*
X2923455Y13933532D01*
X2892661Y13899011D01*
X2864234Y13867671D01*
X2839555Y13841052D01*
X2820008Y13820691D01*
X2806972Y13808128D01*
X2802117Y13804726D01*
X2797871Y13810819D01*
X2793390Y13825931D01*
X2792429Y13830628D01*
X2787014Y13853074D01*
X2777451Y13886100D01*
X2764560Y13927283D01*
X2749162Y13974201D01*
X2732076Y14024433D01*
X2714124Y14075557D01*
X2696127Y14125151D01*
X2678903Y14170794D01*
X2666822Y14201383D01*
X2603508Y14350299D01*
X2531341Y14506739D01*
X2451482Y14668558D01*
X2365088Y14833610D01*
X2273317Y14999749D01*
X2177328Y15164829D01*
X2078278Y15326704D01*
X1977325Y15483228D01*
X1965005Y15501749D01*
X1931622Y15551178D01*
X1896389Y15602306D01*
X1860415Y15653611D01*
X1824812Y15703570D01*
X1790688Y15750661D01*
X1759155Y15793361D01*
X1731322Y15830146D01*
X1708300Y15859496D01*
X1691198Y15879886D01*
X1683447Y15887921D01*
X1676094Y15891889D01*
X1661209Y15896934D01*
X1637943Y15903248D01*
X1605448Y15911023D01*
X1562876Y15920453D01*
X1509376Y15931729D01*
X1444102Y15945045D01*
X1366205Y15960593D01*
X1343439Y15965092D01*
X1278134Y15977936D01*
X1217116Y15989863D01*
X1161719Y16000618D01*
X1113276Y16009945D01*
X1073122Y16017588D01*
X1042591Y16023292D01*
X1023015Y16026802D01*
X1015729Y16027863D01*
X1015718Y16027857D01*
X1017129Y16021157D01*
X1021643Y16002354D01*
X1028908Y15972829D01*
X1038576Y15933961D01*
X1050296Y15887131D01*
X1063718Y15833718D01*
X1078491Y15775103D01*
X1094267Y15712666D01*
X1110693Y15647786D01*
X1127421Y15581845D01*
X1144101Y15516221D01*
X1160381Y15452296D01*
X1175913Y15391449D01*
X1190345Y15335060D01*
X1203328Y15284509D01*
X1214512Y15241177D01*
X1223546Y15206443D01*
X1230080Y15181688D01*
X1233765Y15168292D01*
X1233924Y15167759D01*
X1232235Y15162459D01*
X1223932Y15154402D01*
X1207941Y15142884D01*
X1183185Y15127196D01*
X1148587Y15106634D01*
X1103071Y15080489D01*
X1087535Y15071683D01*
X1046305Y15048160D01*
X1009416Y15026715D01*
X978506Y15008334D01*
X955214Y14994003D01*
X941179Y14984706D01*
X937712Y14981600D01*
X943425Y14977189D01*
X960091Y14965653D01*
X986997Y14947462D01*
X1023433Y14923087D01*
X1068688Y14892996D01*
X1122050Y14857660D01*
X1182808Y14817548D01*
X1250251Y14773130D01*
X1323668Y14724875D01*
X1402347Y14673254D01*
X1485577Y14618736D01*
X1572648Y14561790D01*
X1640481Y14517485D01*
X1729991Y14458998D01*
X1816200Y14402559D01*
X1898395Y14348640D01*
X1975864Y14297712D01*
X2047897Y14250248D01*
X2113782Y14206718D01*
X2172806Y14167593D01*
X2224259Y14133346D01*
X2267428Y14104449D01*
X2301602Y14081371D01*
X2326070Y14064586D01*
X2340119Y14054564D01*
X2343391Y14051767D01*
X2341383Y14043815D01*
X2335595Y14024052D01*
X2326473Y13993927D01*
X2314463Y13954891D01*
X2300013Y13908391D01*
X2283570Y13855877D01*
X2265579Y13798800D01*
X2259101Y13778333D01*
X2240813Y13720158D01*
X2224109Y13666142D01*
X2209412Y13617716D01*
X2197142Y13576309D01*
X2187721Y13543351D01*
X2181572Y13520274D01*
X2179115Y13508506D01*
X2179210Y13507319D01*
X2186634Y13507463D01*
X2206889Y13509183D01*
X2238988Y13512369D01*
X2281948Y13516910D01*
X2334783Y13522695D01*
X2396509Y13529615D01*
X2466139Y13537559D01*
X2542691Y13546416D01*
X2625177Y13556076D01*
X2712614Y13566429D01*
X2804017Y13577363D01*
X2804635Y13577438D01*
X3425520Y13652096D01*
X4033682Y13578794D01*
X4124479Y13567873D01*
X4211541Y13557443D01*
X4293846Y13547626D01*
X4370372Y13538540D01*
X4440098Y13530306D01*
X4502003Y13523044D01*
X4555065Y13516874D01*
X4598262Y13511915D01*
X4630573Y13508288D01*
X4650976Y13506112D01*
X4658244Y13505493D01*
X4670843Y13507581D01*
X4674644Y13511268D01*
X4672606Y13518962D01*
X4666792Y13538466D01*
X4657652Y13568331D01*
X4645636Y13607106D01*
X4631194Y13653342D01*
X4614777Y13705588D01*
X4596833Y13762395D01*
X4591137Y13780369D01*
X4572807Y13838356D01*
X4555871Y13892296D01*
X4540779Y13940727D01*
X4527982Y13982186D01*
X4517930Y14015212D01*
X4511074Y14038342D01*
X4507865Y14050113D01*
X4507680Y14051210D01*
X4513401Y14055899D01*
X4530077Y14067705D01*
X4556996Y14086156D01*
X4593447Y14110780D01*
X4638717Y14141106D01*
X4692097Y14176660D01*
X4752873Y14216972D01*
X4820335Y14261567D01*
X4893771Y14309975D01*
X4972470Y14361724D01*
X5055719Y14416340D01*
X5142808Y14473352D01*
X5210529Y14517605D01*
X5300025Y14576082D01*
X5386219Y14632484D01*
X5468398Y14686342D01*
X5545852Y14737186D01*
X5617870Y14784546D01*
X5683741Y14827953D01*
X5742754Y14866936D01*
X5794197Y14901028D01*
X5837359Y14929756D01*
X5871529Y14952654D01*
X5895997Y14969249D01*
X5910050Y14979074D01*
X5913328Y14981720D01*
X5907524Y14986444D01*
X5891203Y14996963D01*
X5866005Y15012293D01*
X5833568Y15031450D01*
X5795532Y15053451D01*
X5763506Y15071683D01*
X5714592Y15099594D01*
X5676911Y15121716D01*
X5649387Y15138757D01*
X5630943Y15151422D01*
X5620503Y15160418D01*
X5616990Y15166452D01*
X5617116Y15167759D01*
X5620584Y15180276D01*
X5626926Y15204254D01*
X5635793Y15238313D01*
X5646835Y15281072D01*
X5659701Y15331151D01*
X5674041Y15387171D01*
X5689505Y15447750D01*
X5705744Y15511508D01*
X5722407Y15577066D01*
X5739143Y15643043D01*
X5755604Y15708059D01*
X5771438Y15770733D01*
X5786295Y15829686D01*
X5799827Y15883537D01*
X5811681Y15930906D01*
X5821509Y15970412D01*
X5828960Y16000676D01*
X5833685Y16020318D01*
X5835332Y16027956D01*
X5835323Y16028006D01*
X5828303Y16027030D01*
%TD*%
M02*
