M48
; DRILL file {KiCad (5.1.6)-1} date 05/10/21 20:56:23
; FORMAT={-:-/ absolute / inch / decimal}
; #@! TF.CreationDate,2021-05-10T20:56:23-04:00
; #@! TF.GenerationSoftware,Kicad,Pcbnew,(5.1.6)-1
; #@! TF.FileFunction,Plated,1,2,PTH
FMAT,2
INCH
T1C0.0150
T2C0.0197
T3C0.1260
%
G90
G05
T1
X0.075Y0.645
X0.135Y0.45
X0.245Y0.255
X0.25Y0.61
T2
X-0.2441Y0.126
X-0.2164Y0.1928
X-0.2164Y0.0592
X-0.1496Y0.2205
X-0.1496Y0.0315
X-0.0828Y0.1928
X-0.0828Y0.0592
X-0.0551Y0.126
X0.0551Y0.126
X0.0828Y0.1928
X0.0828Y0.0592
X0.1496Y0.2205
X0.1496Y0.0315
X0.2164Y0.1928
X0.2164Y0.0592
X0.2441Y0.126
X-0.2264Y0.5906
X-0.1987Y0.6574
X-0.1987Y0.5238
X-0.1319Y0.6851
X-0.1319Y0.4961
X-0.0651Y0.6574
X-0.0651Y0.5238
X-0.0374Y0.5906
T3
X-0.1496Y0.126
X0.1496Y0.126
X-0.1319Y0.5906
T0
M30
