%TF.GenerationSoftware,KiCad,Pcbnew,(5.1.6)-1*%
%TF.CreationDate,2021-05-10T20:56:14-04:00*%
%TF.ProjectId,magswitch,6d616773-7769-4746-9368-2e6b69636164,rev?*%
%TF.SameCoordinates,Original*%
%TF.FileFunction,Paste,Top*%
%TF.FilePolarity,Positive*%
%FSLAX46Y46*%
G04 Gerber Fmt 4.6, Leading zero omitted, Abs format (unit mm)*
G04 Created by KiCad (PCBNEW (5.1.6)-1) date 2021-05-10 20:56:14*
%MOMM*%
%LPD*%
G01*
G04 APERTURE LIST*
%ADD10R,0.900000X0.800000*%
%ADD11R,0.650000X1.060000*%
G04 APERTURE END LIST*
%TO.C,C1*%
G36*
G01*
X5784000Y16561750D02*
X5784000Y17474250D01*
G75*
G02*
X6027750Y17718000I243750J0D01*
G01*
X6515250Y17718000D01*
G75*
G02*
X6759000Y17474250I0J-243750D01*
G01*
X6759000Y16561750D01*
G75*
G02*
X6515250Y16318000I-243750J0D01*
G01*
X6027750Y16318000D01*
G75*
G02*
X5784000Y16561750I0J243750D01*
G01*
G37*
G36*
G01*
X3909000Y16561750D02*
X3909000Y17474250D01*
G75*
G02*
X4152750Y17718000I243750J0D01*
G01*
X4640250Y17718000D01*
G75*
G02*
X4884000Y17474250I0J-243750D01*
G01*
X4884000Y16561750D01*
G75*
G02*
X4640250Y16318000I-243750J0D01*
G01*
X4152750Y16318000D01*
G75*
G02*
X3909000Y16561750I0J243750D01*
G01*
G37*
%TD*%
%TO.C,Q2*%
G36*
G01*
X-4802000Y7389000D02*
X-4802000Y7089000D01*
G75*
G02*
X-4952000Y6939000I-150000J0D01*
G01*
X-6602000Y6939000D01*
G75*
G02*
X-6752000Y7089000I0J150000D01*
G01*
X-6752000Y7389000D01*
G75*
G02*
X-6602000Y7539000I150000J0D01*
G01*
X-4952000Y7539000D01*
G75*
G02*
X-4802000Y7389000I0J-150000D01*
G01*
G37*
G36*
G01*
X-4802000Y8659000D02*
X-4802000Y8359000D01*
G75*
G02*
X-4952000Y8209000I-150000J0D01*
G01*
X-6602000Y8209000D01*
G75*
G02*
X-6752000Y8359000I0J150000D01*
G01*
X-6752000Y8659000D01*
G75*
G02*
X-6602000Y8809000I150000J0D01*
G01*
X-4952000Y8809000D01*
G75*
G02*
X-4802000Y8659000I0J-150000D01*
G01*
G37*
G36*
G01*
X-4802000Y9929000D02*
X-4802000Y9629000D01*
G75*
G02*
X-4952000Y9479000I-150000J0D01*
G01*
X-6602000Y9479000D01*
G75*
G02*
X-6752000Y9629000I0J150000D01*
G01*
X-6752000Y9929000D01*
G75*
G02*
X-6602000Y10079000I150000J0D01*
G01*
X-4952000Y10079000D01*
G75*
G02*
X-4802000Y9929000I0J-150000D01*
G01*
G37*
G36*
G01*
X-4802000Y11199000D02*
X-4802000Y10899000D01*
G75*
G02*
X-4952000Y10749000I-150000J0D01*
G01*
X-6602000Y10749000D01*
G75*
G02*
X-6752000Y10899000I0J150000D01*
G01*
X-6752000Y11199000D01*
G75*
G02*
X-6602000Y11349000I150000J0D01*
G01*
X-4952000Y11349000D01*
G75*
G02*
X-4802000Y11199000I0J-150000D01*
G01*
G37*
G36*
G01*
X148000Y11199000D02*
X148000Y10899000D01*
G75*
G02*
X-2000Y10749000I-150000J0D01*
G01*
X-1652000Y10749000D01*
G75*
G02*
X-1802000Y10899000I0J150000D01*
G01*
X-1802000Y11199000D01*
G75*
G02*
X-1652000Y11349000I150000J0D01*
G01*
X-2000Y11349000D01*
G75*
G02*
X148000Y11199000I0J-150000D01*
G01*
G37*
G36*
G01*
X148000Y9929000D02*
X148000Y9629000D01*
G75*
G02*
X-2000Y9479000I-150000J0D01*
G01*
X-1652000Y9479000D01*
G75*
G02*
X-1802000Y9629000I0J150000D01*
G01*
X-1802000Y9929000D01*
G75*
G02*
X-1652000Y10079000I150000J0D01*
G01*
X-2000Y10079000D01*
G75*
G02*
X148000Y9929000I0J-150000D01*
G01*
G37*
G36*
G01*
X148000Y8659000D02*
X148000Y8359000D01*
G75*
G02*
X-2000Y8209000I-150000J0D01*
G01*
X-1652000Y8209000D01*
G75*
G02*
X-1802000Y8359000I0J150000D01*
G01*
X-1802000Y8659000D01*
G75*
G02*
X-1652000Y8809000I150000J0D01*
G01*
X-2000Y8809000D01*
G75*
G02*
X148000Y8659000I0J-150000D01*
G01*
G37*
G36*
G01*
X148000Y7389000D02*
X148000Y7089000D01*
G75*
G02*
X-2000Y6939000I-150000J0D01*
G01*
X-1652000Y6939000D01*
G75*
G02*
X-1802000Y7089000I0J150000D01*
G01*
X-1802000Y7389000D01*
G75*
G02*
X-1652000Y7539000I150000J0D01*
G01*
X-2000Y7539000D01*
G75*
G02*
X148000Y7389000I0J-150000D01*
G01*
G37*
%TD*%
%TO.C,R1*%
G36*
G01*
X2269000Y7363750D02*
X2269000Y7876250D01*
G75*
G02*
X2487750Y8095000I218750J0D01*
G01*
X2925250Y8095000D01*
G75*
G02*
X3144000Y7876250I0J-218750D01*
G01*
X3144000Y7363750D01*
G75*
G02*
X2925250Y7145000I-218750J0D01*
G01*
X2487750Y7145000D01*
G75*
G02*
X2269000Y7363750I0J218750D01*
G01*
G37*
G36*
G01*
X694000Y7363750D02*
X694000Y7876250D01*
G75*
G02*
X912750Y8095000I218750J0D01*
G01*
X1350250Y8095000D01*
G75*
G02*
X1569000Y7876250I0J-218750D01*
G01*
X1569000Y7363750D01*
G75*
G02*
X1350250Y7145000I-218750J0D01*
G01*
X912750Y7145000D01*
G75*
G02*
X694000Y7363750I0J218750D01*
G01*
G37*
%TD*%
%TO.C,R4*%
G36*
G01*
X6460500Y10623000D02*
X5985500Y10623000D01*
G75*
G02*
X5748000Y10860500I0J237500D01*
G01*
X5748000Y11435500D01*
G75*
G02*
X5985500Y11673000I237500J0D01*
G01*
X6460500Y11673000D01*
G75*
G02*
X6698000Y11435500I0J-237500D01*
G01*
X6698000Y10860500D01*
G75*
G02*
X6460500Y10623000I-237500J0D01*
G01*
G37*
G36*
G01*
X6460500Y8873000D02*
X5985500Y8873000D01*
G75*
G02*
X5748000Y9110500I0J237500D01*
G01*
X5748000Y9685500D01*
G75*
G02*
X5985500Y9923000I237500J0D01*
G01*
X6460500Y9923000D01*
G75*
G02*
X6698000Y9685500I0J-237500D01*
G01*
X6698000Y9110500D01*
G75*
G02*
X6460500Y8873000I-237500J0D01*
G01*
G37*
%TD*%
%TO.C,R3*%
G36*
G01*
X2114000Y12843500D02*
X2114000Y13318500D01*
G75*
G02*
X2351500Y13556000I237500J0D01*
G01*
X2926500Y13556000D01*
G75*
G02*
X3164000Y13318500I0J-237500D01*
G01*
X3164000Y12843500D01*
G75*
G02*
X2926500Y12606000I-237500J0D01*
G01*
X2351500Y12606000D01*
G75*
G02*
X2114000Y12843500I0J237500D01*
G01*
G37*
G36*
G01*
X364000Y12843500D02*
X364000Y13318500D01*
G75*
G02*
X601500Y13556000I237500J0D01*
G01*
X1176500Y13556000D01*
G75*
G02*
X1414000Y13318500I0J-237500D01*
G01*
X1414000Y12843500D01*
G75*
G02*
X1176500Y12606000I-237500J0D01*
G01*
X601500Y12606000D01*
G75*
G02*
X364000Y12843500I0J237500D01*
G01*
G37*
%TD*%
%TO.C,R2*%
G36*
G01*
X1507500Y10764000D02*
X1032500Y10764000D01*
G75*
G02*
X795000Y11001500I0J237500D01*
G01*
X795000Y11576500D01*
G75*
G02*
X1032500Y11814000I237500J0D01*
G01*
X1507500Y11814000D01*
G75*
G02*
X1745000Y11576500I0J-237500D01*
G01*
X1745000Y11001500D01*
G75*
G02*
X1507500Y10764000I-237500J0D01*
G01*
G37*
G36*
G01*
X1507500Y9014000D02*
X1032500Y9014000D01*
G75*
G02*
X795000Y9251500I0J237500D01*
G01*
X795000Y9826500D01*
G75*
G02*
X1032500Y10064000I237500J0D01*
G01*
X1507500Y10064000D01*
G75*
G02*
X1745000Y9826500I0J-237500D01*
G01*
X1745000Y9251500D01*
G75*
G02*
X1507500Y9014000I-237500J0D01*
G01*
G37*
%TD*%
%TO.C,D1*%
G36*
G01*
X4843000Y7857500D02*
X4843000Y7382500D01*
G75*
G02*
X4605500Y7145000I-237500J0D01*
G01*
X4030500Y7145000D01*
G75*
G02*
X3793000Y7382500I0J237500D01*
G01*
X3793000Y7857500D01*
G75*
G02*
X4030500Y8095000I237500J0D01*
G01*
X4605500Y8095000D01*
G75*
G02*
X4843000Y7857500I0J-237500D01*
G01*
G37*
G36*
G01*
X6593000Y7857500D02*
X6593000Y7382500D01*
G75*
G02*
X6355500Y7145000I-237500J0D01*
G01*
X5780500Y7145000D01*
G75*
G02*
X5543000Y7382500I0J237500D01*
G01*
X5543000Y7857500D01*
G75*
G02*
X5780500Y8095000I237500J0D01*
G01*
X6355500Y8095000D01*
G75*
G02*
X6593000Y7857500I0J-237500D01*
G01*
G37*
%TD*%
D10*
%TO.C,Q1*%
X2683000Y10287000D03*
X4683000Y11237000D03*
X4683000Y9337000D03*
%TD*%
D11*
%TO.C,U2*%
X955000Y17229000D03*
X2855000Y17229000D03*
X2855000Y15029000D03*
X1905000Y15029000D03*
X955000Y15029000D03*
%TD*%
D10*
%TO.C,U1*%
X6334000Y14097000D03*
X4334000Y13147000D03*
X4334000Y15047000D03*
%TD*%
M02*
