%TF.GenerationSoftware,KiCad,Pcbnew,(5.1.6)-1*%
%TF.CreationDate,2021-05-10T20:56:14-04:00*%
%TF.ProjectId,magswitch,6d616773-7769-4746-9368-2e6b69636164,rev?*%
%TF.SameCoordinates,Original*%
%TF.FileFunction,Soldermask,Top*%
%TF.FilePolarity,Negative*%
%FSLAX46Y46*%
G04 Gerber Fmt 4.6, Leading zero omitted, Abs format (unit mm)*
G04 Created by KiCad (PCBNEW (5.1.6)-1) date 2021-05-10 20:56:14*
%MOMM*%
%LPD*%
G01*
G04 APERTURE LIST*
%ADD10R,1.000000X0.900000*%
%ADD11R,0.750000X1.160000*%
%ADD12C,0.900000*%
%ADD13C,6.500000*%
G04 APERTURE END LIST*
%TO.C,C1*%
G36*
G01*
X5734000Y16536750D02*
X5734000Y17499250D01*
G75*
G02*
X6002750Y17768000I268750J0D01*
G01*
X6540250Y17768000D01*
G75*
G02*
X6809000Y17499250I0J-268750D01*
G01*
X6809000Y16536750D01*
G75*
G02*
X6540250Y16268000I-268750J0D01*
G01*
X6002750Y16268000D01*
G75*
G02*
X5734000Y16536750I0J268750D01*
G01*
G37*
G36*
G01*
X3859000Y16536750D02*
X3859000Y17499250D01*
G75*
G02*
X4127750Y17768000I268750J0D01*
G01*
X4665250Y17768000D01*
G75*
G02*
X4934000Y17499250I0J-268750D01*
G01*
X4934000Y16536750D01*
G75*
G02*
X4665250Y16268000I-268750J0D01*
G01*
X4127750Y16268000D01*
G75*
G02*
X3859000Y16536750I0J268750D01*
G01*
G37*
%TD*%
%TO.C,Q2*%
G36*
G01*
X-4752000Y7414000D02*
X-4752000Y7064000D01*
G75*
G02*
X-4927000Y6889000I-175000J0D01*
G01*
X-6627000Y6889000D01*
G75*
G02*
X-6802000Y7064000I0J175000D01*
G01*
X-6802000Y7414000D01*
G75*
G02*
X-6627000Y7589000I175000J0D01*
G01*
X-4927000Y7589000D01*
G75*
G02*
X-4752000Y7414000I0J-175000D01*
G01*
G37*
G36*
G01*
X-4752000Y8684000D02*
X-4752000Y8334000D01*
G75*
G02*
X-4927000Y8159000I-175000J0D01*
G01*
X-6627000Y8159000D01*
G75*
G02*
X-6802000Y8334000I0J175000D01*
G01*
X-6802000Y8684000D01*
G75*
G02*
X-6627000Y8859000I175000J0D01*
G01*
X-4927000Y8859000D01*
G75*
G02*
X-4752000Y8684000I0J-175000D01*
G01*
G37*
G36*
G01*
X-4752000Y9954000D02*
X-4752000Y9604000D01*
G75*
G02*
X-4927000Y9429000I-175000J0D01*
G01*
X-6627000Y9429000D01*
G75*
G02*
X-6802000Y9604000I0J175000D01*
G01*
X-6802000Y9954000D01*
G75*
G02*
X-6627000Y10129000I175000J0D01*
G01*
X-4927000Y10129000D01*
G75*
G02*
X-4752000Y9954000I0J-175000D01*
G01*
G37*
G36*
G01*
X-4752000Y11224000D02*
X-4752000Y10874000D01*
G75*
G02*
X-4927000Y10699000I-175000J0D01*
G01*
X-6627000Y10699000D01*
G75*
G02*
X-6802000Y10874000I0J175000D01*
G01*
X-6802000Y11224000D01*
G75*
G02*
X-6627000Y11399000I175000J0D01*
G01*
X-4927000Y11399000D01*
G75*
G02*
X-4752000Y11224000I0J-175000D01*
G01*
G37*
G36*
G01*
X198000Y11224000D02*
X198000Y10874000D01*
G75*
G02*
X23000Y10699000I-175000J0D01*
G01*
X-1677000Y10699000D01*
G75*
G02*
X-1852000Y10874000I0J175000D01*
G01*
X-1852000Y11224000D01*
G75*
G02*
X-1677000Y11399000I175000J0D01*
G01*
X23000Y11399000D01*
G75*
G02*
X198000Y11224000I0J-175000D01*
G01*
G37*
G36*
G01*
X198000Y9954000D02*
X198000Y9604000D01*
G75*
G02*
X23000Y9429000I-175000J0D01*
G01*
X-1677000Y9429000D01*
G75*
G02*
X-1852000Y9604000I0J175000D01*
G01*
X-1852000Y9954000D01*
G75*
G02*
X-1677000Y10129000I175000J0D01*
G01*
X23000Y10129000D01*
G75*
G02*
X198000Y9954000I0J-175000D01*
G01*
G37*
G36*
G01*
X198000Y8684000D02*
X198000Y8334000D01*
G75*
G02*
X23000Y8159000I-175000J0D01*
G01*
X-1677000Y8159000D01*
G75*
G02*
X-1852000Y8334000I0J175000D01*
G01*
X-1852000Y8684000D01*
G75*
G02*
X-1677000Y8859000I175000J0D01*
G01*
X23000Y8859000D01*
G75*
G02*
X198000Y8684000I0J-175000D01*
G01*
G37*
G36*
G01*
X198000Y7414000D02*
X198000Y7064000D01*
G75*
G02*
X23000Y6889000I-175000J0D01*
G01*
X-1677000Y6889000D01*
G75*
G02*
X-1852000Y7064000I0J175000D01*
G01*
X-1852000Y7414000D01*
G75*
G02*
X-1677000Y7589000I175000J0D01*
G01*
X23000Y7589000D01*
G75*
G02*
X198000Y7414000I0J-175000D01*
G01*
G37*
%TD*%
%TO.C,R1*%
G36*
G01*
X2219000Y7338750D02*
X2219000Y7901250D01*
G75*
G02*
X2462750Y8145000I243750J0D01*
G01*
X2950250Y8145000D01*
G75*
G02*
X3194000Y7901250I0J-243750D01*
G01*
X3194000Y7338750D01*
G75*
G02*
X2950250Y7095000I-243750J0D01*
G01*
X2462750Y7095000D01*
G75*
G02*
X2219000Y7338750I0J243750D01*
G01*
G37*
G36*
G01*
X644000Y7338750D02*
X644000Y7901250D01*
G75*
G02*
X887750Y8145000I243750J0D01*
G01*
X1375250Y8145000D01*
G75*
G02*
X1619000Y7901250I0J-243750D01*
G01*
X1619000Y7338750D01*
G75*
G02*
X1375250Y7095000I-243750J0D01*
G01*
X887750Y7095000D01*
G75*
G02*
X644000Y7338750I0J243750D01*
G01*
G37*
%TD*%
%TO.C,R4*%
G36*
G01*
X6485500Y10573000D02*
X5960500Y10573000D01*
G75*
G02*
X5698000Y10835500I0J262500D01*
G01*
X5698000Y11460500D01*
G75*
G02*
X5960500Y11723000I262500J0D01*
G01*
X6485500Y11723000D01*
G75*
G02*
X6748000Y11460500I0J-262500D01*
G01*
X6748000Y10835500D01*
G75*
G02*
X6485500Y10573000I-262500J0D01*
G01*
G37*
G36*
G01*
X6485500Y8823000D02*
X5960500Y8823000D01*
G75*
G02*
X5698000Y9085500I0J262500D01*
G01*
X5698000Y9710500D01*
G75*
G02*
X5960500Y9973000I262500J0D01*
G01*
X6485500Y9973000D01*
G75*
G02*
X6748000Y9710500I0J-262500D01*
G01*
X6748000Y9085500D01*
G75*
G02*
X6485500Y8823000I-262500J0D01*
G01*
G37*
%TD*%
%TO.C,R3*%
G36*
G01*
X2064000Y12818500D02*
X2064000Y13343500D01*
G75*
G02*
X2326500Y13606000I262500J0D01*
G01*
X2951500Y13606000D01*
G75*
G02*
X3214000Y13343500I0J-262500D01*
G01*
X3214000Y12818500D01*
G75*
G02*
X2951500Y12556000I-262500J0D01*
G01*
X2326500Y12556000D01*
G75*
G02*
X2064000Y12818500I0J262500D01*
G01*
G37*
G36*
G01*
X314000Y12818500D02*
X314000Y13343500D01*
G75*
G02*
X576500Y13606000I262500J0D01*
G01*
X1201500Y13606000D01*
G75*
G02*
X1464000Y13343500I0J-262500D01*
G01*
X1464000Y12818500D01*
G75*
G02*
X1201500Y12556000I-262500J0D01*
G01*
X576500Y12556000D01*
G75*
G02*
X314000Y12818500I0J262500D01*
G01*
G37*
%TD*%
%TO.C,R2*%
G36*
G01*
X1532500Y10714000D02*
X1007500Y10714000D01*
G75*
G02*
X745000Y10976500I0J262500D01*
G01*
X745000Y11601500D01*
G75*
G02*
X1007500Y11864000I262500J0D01*
G01*
X1532500Y11864000D01*
G75*
G02*
X1795000Y11601500I0J-262500D01*
G01*
X1795000Y10976500D01*
G75*
G02*
X1532500Y10714000I-262500J0D01*
G01*
G37*
G36*
G01*
X1532500Y8964000D02*
X1007500Y8964000D01*
G75*
G02*
X745000Y9226500I0J262500D01*
G01*
X745000Y9851500D01*
G75*
G02*
X1007500Y10114000I262500J0D01*
G01*
X1532500Y10114000D01*
G75*
G02*
X1795000Y9851500I0J-262500D01*
G01*
X1795000Y9226500D01*
G75*
G02*
X1532500Y8964000I-262500J0D01*
G01*
G37*
%TD*%
%TO.C,D1*%
G36*
G01*
X4893000Y7882500D02*
X4893000Y7357500D01*
G75*
G02*
X4630500Y7095000I-262500J0D01*
G01*
X4005500Y7095000D01*
G75*
G02*
X3743000Y7357500I0J262500D01*
G01*
X3743000Y7882500D01*
G75*
G02*
X4005500Y8145000I262500J0D01*
G01*
X4630500Y8145000D01*
G75*
G02*
X4893000Y7882500I0J-262500D01*
G01*
G37*
G36*
G01*
X6643000Y7882500D02*
X6643000Y7357500D01*
G75*
G02*
X6380500Y7095000I-262500J0D01*
G01*
X5755500Y7095000D01*
G75*
G02*
X5493000Y7357500I0J262500D01*
G01*
X5493000Y7882500D01*
G75*
G02*
X5755500Y8145000I262500J0D01*
G01*
X6380500Y8145000D01*
G75*
G02*
X6643000Y7882500I0J-262500D01*
G01*
G37*
%TD*%
D10*
%TO.C,Q1*%
X2683000Y10287000D03*
X4683000Y11237000D03*
X4683000Y9337000D03*
%TD*%
D11*
%TO.C,U2*%
X955000Y17229000D03*
X2855000Y17229000D03*
X2855000Y15029000D03*
X1905000Y15029000D03*
X955000Y15029000D03*
%TD*%
D12*
%TO.C,H3*%
X-1653204Y16698296D03*
X-3350260Y17401240D03*
X-5047316Y16698296D03*
X-5750260Y15001240D03*
X-5047316Y13304184D03*
X-3350260Y12601240D03*
X-1653204Y13304184D03*
X-950260Y15001240D03*
D13*
X-3350260Y15001240D03*
%TD*%
D12*
%TO.C,H2*%
X5496896Y4897456D03*
X3799840Y5600400D03*
X2102784Y4897456D03*
X1399840Y3200400D03*
X2102784Y1503344D03*
X3799840Y800400D03*
X5496896Y1503344D03*
X6199840Y3200400D03*
D13*
X3799840Y3200400D03*
%TD*%
D12*
%TO.C,H1*%
X-2102784Y4897456D03*
X-3799840Y5600400D03*
X-5496896Y4897456D03*
X-6199840Y3200400D03*
X-5496896Y1503344D03*
X-3799840Y800400D03*
X-2102784Y1503344D03*
X-1399840Y3200400D03*
D13*
X-3799840Y3200400D03*
%TD*%
D10*
%TO.C,U1*%
X6334000Y14097000D03*
X4334000Y13147000D03*
X4334000Y15047000D03*
%TD*%
M02*
